<svg width="9" height="16" viewBox="0 0 9 16" fill="none" xmlns="http://www.w3.org/2000/svg">
<path d="M0.808037 8.71718H2.46603V15.5452C2.46603 15.6099 2.49175 15.672 2.53751 15.7177C2.58327 15.7635 2.64532 15.7892 2.71004 15.7892H5.52203C5.58675 15.7892 5.64881 15.7635 5.69456 15.7177C5.74032 15.672 5.76604 15.6099 5.76604 15.5452V8.74918H7.67303C7.73283 8.74908 7.79052 8.72703 7.83513 8.68722C7.87974 8.6474 7.90818 8.59258 7.91504 8.53318L8.20503 6.01918C8.20898 5.98503 8.20567 5.95044 8.19531 5.91766C8.18496 5.88489 8.16779 5.85467 8.14494 5.82899C8.1221 5.80331 8.09408 5.78275 8.06273 5.76865C8.03138 5.75455 7.9974 5.74723 7.96303 5.74718H5.76303V4.17218C5.76303 3.69718 6.01904 3.45618 6.52304 3.45618H7.95903C8.02374 3.45618 8.0858 3.43047 8.13156 3.38471C8.17732 3.33895 8.20303 3.27689 8.20303 3.21218V0.90518C8.20357 0.840808 8.17865 0.778833 8.1337 0.732756C8.08874 0.686679 8.02739 0.660233 7.96303 0.65918H5.98204H5.89104C4.97882 0.662399 4.09833 0.994357 3.41104 1.59418C3.08673 1.8776 2.83789 2.23715 2.6869 2.64053C2.53592 3.0439 2.48752 3.47847 2.54604 3.90518V5.74818H0.805031C0.740318 5.74818 0.678259 5.77389 0.6325 5.81965C0.586741 5.8654 0.561035 5.92747 0.561035 5.99218V8.47318C0.561033 8.50548 0.567438 8.53745 0.579887 8.56725C0.592337 8.59705 0.610584 8.62409 0.63356 8.64678C0.656536 8.66948 0.683787 8.68739 0.713737 8.69947C0.743688 8.71156 0.775743 8.71758 0.808037 8.71718Z" fill="#385C8E"/>
</svg>
