<svg width="19" height="17" viewBox="0 0 19 17" fill="none" xmlns="http://www.w3.org/2000/svg">
<path fill-rule="evenodd" clip-rule="evenodd" d="M12.9357 2.84815C13.5795 2.84882 14.2094 3.0353 14.7499 3.38526C15.2903 3.73522 15.7182 4.23377 15.9822 4.82099C16.2462 5.40822 16.335 6.05919 16.2381 6.69569C16.1411 7.33218 15.8625 7.92713 15.4357 8.40913C14.8227 9.10013 9.59569 13.9932 9.59569 13.9932C9.59569 13.9932 4.35768 9.10014 3.74468 8.39814C3.20349 7.79068 2.90577 7.00474 2.90868 6.19117C2.92384 5.31443 3.28275 4.47868 3.90813 3.86402C4.53351 3.24937 5.37532 2.90498 6.25219 2.90498C7.12906 2.90498 7.9708 3.24937 8.59618 3.86402C9.22156 4.47868 9.58053 5.31443 9.59569 6.19117C9.59569 5.75203 9.68216 5.31716 9.85021 4.91145C10.0183 4.50573 10.2646 4.13713 10.5751 3.82661C10.8856 3.51609 11.2542 3.26974 11.66 3.10169C12.0657 2.93364 12.5005 2.84718 12.9397 2.84718L12.9357 2.84815ZM12.9397 0.618173C11.7334 0.616068 10.5593 1.00753 9.59569 1.73316C8.49173 0.913779 7.12383 0.531354 5.75499 0.659432C4.38616 0.78751 3.11296 1.41705 2.18017 2.42701C1.24737 3.43697 0.720819 4.75606 0.701711 6.13075C0.682602 7.50543 1.17229 8.83866 2.07665 9.87415C2.70265 10.5922 6.82565 14.4522 8.07665 15.6182C8.48957 16.0043 9.03382 16.2191 9.59917 16.2191C10.1645 16.2191 10.7087 16.0043 11.1216 15.6182C12.3656 14.4532 16.4716 10.6032 17.1056 9.88618C17.817 9.08264 18.2812 8.09082 18.4425 7.02985C18.6038 5.96889 18.4554 4.88392 18.015 3.90528C17.5746 2.92664 16.861 2.09594 15.96 1.51301C15.059 0.930081 14.0088 0.619698 12.9357 0.619149L12.9397 0.618173Z" fill="#33A0FF"/>
</svg>
