<svg width="39" height="26" viewBox="0 0 39 26" fill="none" xmlns="http://www.w3.org/2000/svg">
<path d="M2.2772 0.593994H37.2501C37.7008 0.603184 38.1295 0.790788 38.4418 1.11597C38.754 1.44115 38.9243 1.87716 38.9151 2.32788V24.0022C38.9243 24.4529 38.754 24.8884 38.4418 25.2136C38.1295 25.5388 37.7008 25.7269 37.2501 25.7361H2.2772C1.82648 25.7269 1.39779 25.5388 1.08555 25.2136C0.773313 24.8884 0.603054 24.4529 0.612164 24.0022V2.32788C0.603054 1.87716 0.773313 1.44115 1.08555 1.11597C1.39779 0.790788 1.82648 0.603184 2.2772 0.593994Z" fill="#5870BE"/>
<path d="M17.3672 13.1608C17.3676 11.385 17.8945 9.64927 18.8813 8.17296C19.8682 6.69666 21.2706 5.54613 22.9113 4.86681C24.5519 4.18749 26.3572 4.00995 28.0988 4.35656C29.8404 4.70316 31.4401 5.55836 32.6957 6.81407C33.9513 8.06979 34.8063 9.66961 35.1527 11.4112C35.4991 13.1529 35.3212 14.9581 34.6417 16.5987C33.9622 18.2393 32.8116 19.6414 31.3352 20.628C29.8588 21.6147 28.1229 22.1415 26.3472 22.1417C25.1678 22.1417 24 21.9095 22.9104 21.4581C21.8208 21.0068 20.8308 20.3453 19.9969 19.5113C19.1631 18.6774 18.5016 17.6874 18.0504 16.5978C17.5992 15.5081 17.3671 14.3401 17.3672 13.1608Z" fill="#FFAF38"/>
<path d="M12.5883 22.1398C11.0573 22.1397 9.55167 21.748 8.21457 21.0021C6.87747 20.2563 5.75329 19.1808 4.94882 17.8781C4.14436 16.5754 3.68633 15.0888 3.61826 13.5593C3.55018 12.0297 3.87435 10.5079 4.55991 9.13887C5.24547 7.76985 6.26969 6.59923 7.53525 5.7375C8.8008 4.87577 10.2656 4.35171 11.7906 4.21553C13.3156 4.07934 14.8502 4.33532 16.2484 4.95918C17.6466 5.58304 18.8621 6.55409 19.7794 7.77998H18.5794V8.38008H20.1924C20.3134 8.57108 20.4274 8.76895 20.5334 8.96895H17.9793V9.56904H20.8224C20.9104 9.76904 20.9894 9.96914 21.0594 10.1691H17.3794V10.7688H21.2474C21.7336 12.5427 21.6666 14.423 21.0554 16.1579H17.3794V16.758H20.8183C20.7283 16.965 20.6314 17.1578 20.5334 17.3488H17.9793V17.9489H20.1854C20.0524 18.1589 19.9134 18.36 19.7724 18.549H18.5794V19.1491H19.2794C18.4366 20.0895 17.4052 20.8418 16.2524 21.3571C15.0996 21.8725 13.8511 22.139 12.5883 22.1398Z" fill="#E63737"/>
<path d="M2.73703 14.8128L3.28373 10.5528L4.13224 10.6617L4.75349 13.8074C4.81042 14.1002 4.85125 14.3191 4.87597 14.4641C4.94429 14.3153 5.04906 14.0974 5.19026 13.8103L6.5906 10.9772L7.34903 11.0745L6.80233 15.3345L6.25893 15.2648L6.7165 11.6993L5.02104 15.1059L4.51251 15.0407L3.74583 11.256L3.28043 14.8825L2.73703 14.8128ZM9.70764 15.3204C9.49278 15.4602 9.29092 15.5525 9.10206 15.5972C8.91513 15.6421 8.71899 15.6514 8.51364 15.625C8.17463 15.5815 7.92463 15.4658 7.76367 15.2777C7.60295 15.0877 7.53912 14.8639 7.57219 14.6063C7.59158 14.4552 7.64313 14.322 7.72684 14.2067C7.81275 14.0897 7.91575 14.0006 8.03587 13.9392C8.15793 13.878 8.29118 13.8371 8.43564 13.8162C8.54179 13.8023 8.70013 13.796 8.91064 13.7974C9.33942 13.8012 9.65806 13.7811 9.86654 13.737C9.87768 13.6655 9.88449 13.6201 9.88698 13.6008C9.91432 13.3877 9.88419 13.2312 9.79658 13.1313C9.67808 12.996 9.48709 12.9114 9.22363 12.8776C8.9776 12.8461 8.7899 12.8663 8.66055 12.9383C8.53337 13.0086 8.42765 13.1496 8.34338 13.3613L7.8409 13.2259C7.91548 13.013 8.01463 12.8465 8.13833 12.7265C8.26228 12.6046 8.42959 12.5207 8.64026 12.4749C8.85118 12.4271 9.08934 12.4203 9.35474 12.4543C9.61821 12.4882 9.8283 12.5466 9.98501 12.6298C10.1417 12.7129 10.2527 12.8069 10.318 12.9117C10.3836 13.0147 10.4227 13.1398 10.4353 13.2871C10.4413 13.3785 10.4293 13.5404 10.3995 13.7729L10.31 14.4703C10.2476 14.9565 10.2187 15.2659 10.2234 15.3984C10.2302 15.5293 10.259 15.658 10.3097 15.7846L9.76339 15.7145C9.72307 15.5991 9.70449 15.4677 9.70764 15.3204ZM9.81396 14.1467C9.61417 14.1998 9.32094 14.2291 8.93428 14.2346C8.71527 14.238 8.55872 14.2534 8.46464 14.2807C8.37055 14.308 8.29445 14.3563 8.23632 14.4257C8.17844 14.4931 8.14366 14.5723 8.13197 14.6634C8.11407 14.8028 8.15146 14.9258 8.24414 15.0322C8.33876 15.1389 8.48777 15.2052 8.69118 15.2313C8.89265 15.2572 9.07744 15.2366 9.24554 15.1696C9.41389 15.1006 9.5447 14.9943 9.63795 14.8507C9.7093 14.7398 9.75976 14.569 9.78935 14.3385L9.81396 14.1467ZM10.8667 14.9198L11.3944 14.9048C11.3968 15.1158 11.4568 15.285 11.5744 15.4123C11.6939 15.5399 11.8728 15.619 12.1111 15.6496C12.3513 15.6804 12.5357 15.6548 12.6644 15.5729C12.7933 15.489 12.8662 15.3812 12.8831 15.2495C12.8983 15.1313 12.8589 15.0317 12.7649 14.9507C12.6992 14.895 12.5286 14.8131 12.253 14.7049C11.8818 14.5588 11.6262 14.4413 11.4859 14.3524C11.3479 14.2618 11.2481 14.1496 11.1865 14.0156C11.1271 13.88 11.1071 13.7367 11.1265 13.5856C11.1442 13.448 11.1915 13.3251 11.2684 13.2168C11.3475 13.1069 11.4462 13.0201 11.5647 12.9565C11.6537 12.9069 11.7706 12.8707 11.9153 12.8479C12.0622 12.8235 12.216 12.8216 12.3768 12.8422C12.619 12.8733 12.8266 12.9354 12.9998 13.0285C13.1749 13.1218 13.2983 13.2342 13.3701 13.3654C13.4421 13.4948 13.4817 13.6614 13.4891 13.8651L12.9687 13.8692C12.9658 13.7074 12.9139 13.5747 12.813 13.4712C12.714 13.3679 12.5628 13.3032 12.3594 13.2771C12.1192 13.2463 11.9427 13.264 11.8298 13.3302C11.7169 13.3965 11.6537 13.4829 11.64 13.5894C11.6313 13.6572 11.6448 13.721 11.6804 13.7807C11.7158 13.8424 11.7767 13.8974 11.863 13.9459C11.9128 13.972 12.0611 14.0363 12.3079 14.1389C12.6652 14.2852 12.9124 14.3996 13.0495 14.4822C13.1888 14.5631 13.2924 14.6689 13.3603 14.7997C13.4282 14.9305 13.4507 15.085 13.4278 15.2632C13.4054 15.4376 13.333 15.5957 13.2104 15.7375C13.09 15.8776 12.9285 15.9779 12.7257 16.0386C12.5233 16.0973 12.3009 16.1111 12.0588 16.08C11.6578 16.0285 11.3624 15.9059 11.1726 15.7122C10.9848 15.5188 10.8828 15.2546 10.8667 14.9198ZM15.1353 15.9284L15.1516 16.4001C15.0004 16.4122 14.8667 16.4108 14.7504 16.3959C14.5606 16.3715 14.4172 16.3226 14.3203 16.2491C14.2234 16.1756 14.1599 16.0877 14.1297 15.9854C14.0997 15.8811 14.1049 15.6721 14.1452 15.3583L14.373 13.5828L13.9894 13.5335L14.0417 13.1267L14.4252 13.176L14.5233 12.4117L15.0837 12.1646L14.9454 13.2427L15.4713 13.3102L15.4191 13.717L14.8932 13.6495L14.6616 15.4541C14.6424 15.6032 14.6389 15.7002 14.6508 15.7451C14.6647 15.7902 14.6904 15.828 14.7279 15.8584C14.7672 15.889 14.8257 15.9093 14.9032 15.9193C14.9613 15.9267 15.0387 15.9298 15.1353 15.9284ZM17.8297 15.7395L18.3616 15.8757C18.2359 16.1806 18.0465 16.4054 17.7936 16.5501C17.5407 16.6949 17.2351 16.7443 16.8767 16.6983C16.4253 16.6404 16.0847 16.4559 15.8549 16.1448C15.6272 15.832 15.5456 15.4247 15.6099 14.923C15.6766 14.4038 15.862 14.018 16.1661 13.7656C16.4702 13.5132 16.8354 13.4144 17.2616 13.4691C17.6742 13.522 17.9933 13.7057 18.2187 14.0202C18.4442 14.3346 18.5243 14.7466 18.4589 15.2561C18.4549 15.2871 18.448 15.3335 18.4381 15.3952L16.1366 15.0999C16.1125 15.4414 16.1751 15.7133 16.3244 15.9156C16.4737 16.1179 16.6771 16.2355 16.9348 16.2686C17.1266 16.2932 17.2967 16.2638 17.4453 16.1805C17.5938 16.0972 17.722 15.9502 17.8297 15.7395ZM16.2209 14.6735L17.9441 14.8947C17.9541 14.6321 17.9132 14.429 17.8214 14.2852C17.6807 14.0624 17.4776 13.9339 17.2122 13.8999C16.972 13.869 16.7592 13.9235 16.5739 14.0631C16.3906 14.203 16.2729 14.4065 16.2209 14.6735ZM18.8965 16.8866L19.2925 13.8006L19.7633 13.861L19.7032 14.3288C19.8515 14.1254 19.9804 13.9952 20.0901 13.9384C20.2017 13.8818 20.3185 13.8614 20.4406 13.877C20.6169 13.8997 20.7889 13.9788 20.9565 14.1146L20.7141 14.5767C20.5959 14.4848 20.4729 14.4306 20.3451 14.4142C20.2308 14.3995 20.1236 14.4212 20.0236 14.4792C19.9239 14.5354 19.8468 14.622 19.7924 14.739C19.7104 14.9176 19.6552 15.1172 19.6269 15.3381L19.4196 16.9537L18.8965 16.8866ZM24.1821 16.0467L24.7276 16.2615C24.55 16.7093 24.2916 17.0355 23.9522 17.2401C23.615 17.4429 23.2247 17.5159 22.781 17.459C22.3219 17.4 21.9599 17.2591 21.6952 17.0361C21.4326 16.8114 21.2485 16.512 21.1429 16.1381C21.0392 15.7645 21.0135 15.3742 21.0657 14.9674C21.1226 14.5238 21.2565 14.1481 21.4673 13.8404C21.6803 13.531 21.9536 13.3111 22.2874 13.1807C22.6234 13.0485 22.9793 13.0066 23.3551 13.0548C23.7813 13.1095 24.1257 13.264 24.3885 13.5182C24.6512 13.7725 24.8145 14.1036 24.8783 14.5115L24.3065 14.5711C24.2475 14.2484 24.1331 14.0043 23.9634 13.8388C23.7936 13.6733 23.5663 13.5722 23.2816 13.5357C22.9542 13.4937 22.67 13.537 22.429 13.6655C22.19 13.7944 22.0088 13.9857 21.8857 14.2397C21.7627 14.4917 21.6833 14.7582 21.6472 15.0391C21.6007 15.4014 21.6124 15.7248 21.6822 16.0095C21.7542 16.2924 21.893 16.515 22.0986 16.6773C22.3042 16.8395 22.5368 16.9373 22.7964 16.9706C23.1122 17.0112 23.3912 16.9544 23.6335 16.8004C23.8758 16.6464 24.0587 16.3952 24.1821 16.0467ZM27.2474 17.5714C27.0325 17.7112 26.8307 17.8034 26.6418 17.8481C26.4549 17.893 26.2587 17.9023 26.0534 17.876C25.7144 17.8325 25.4644 17.7167 25.3034 17.5287C25.1427 17.3387 25.0789 17.1149 25.1119 16.8572C25.1313 16.7061 25.1829 16.5729 25.2666 16.4576C25.3525 16.3407 25.4555 16.2515 25.5756 16.1901C25.6977 16.129 25.8309 16.088 25.9754 16.0671C26.0815 16.0532 26.2399 16.0469 26.4504 16.0484C26.8792 16.0522 27.1978 16.032 27.4063 15.9879C27.4174 15.9165 27.4242 15.8711 27.4267 15.8517C27.4541 15.6386 27.4239 15.4821 27.3363 15.3823C27.2178 15.2469 27.0268 15.1624 26.7634 15.1286C26.5173 15.097 26.3297 15.1172 26.2003 15.1892C26.0731 15.2595 25.9674 15.4006 25.8831 15.6122L25.3806 15.4769C25.4552 15.2639 25.5544 15.0975 25.6781 14.9775C25.802 14.8555 25.9693 14.7717 26.18 14.7258C26.3909 14.6781 26.6291 14.6712 26.8945 14.7053C27.158 14.7391 27.368 14.7976 27.5248 14.8807C27.6815 14.9638 27.7925 15.0578 27.8578 15.1627C27.9233 15.2656 27.9624 15.3907 27.975 15.5381C27.981 15.6294 27.9691 15.7913 27.9393 16.0238L27.8498 16.7212C27.7874 17.2075 27.7585 17.5168 27.7631 17.6494C27.77 17.7802 27.7987 17.9089 27.8494 18.0356L27.3031 17.9655C27.2628 17.85 27.2442 17.7187 27.2474 17.5714ZM27.3537 16.3976C27.1539 16.4508 26.8607 16.4801 26.474 16.4856C26.255 16.489 26.0985 16.5043 26.0044 16.5316C25.9103 16.559 25.8342 16.6073 25.7761 16.6766C25.7182 16.744 25.6834 16.8232 25.6717 16.9143C25.6538 17.0538 25.6912 17.1767 25.7839 17.2831C25.8785 17.3898 26.0275 17.4562 26.2309 17.4823C26.4324 17.5081 26.6172 17.4875 26.7853 17.4205C26.9536 17.3515 27.0844 17.2452 27.1777 17.1017C27.249 16.9907 27.2995 16.8199 27.3291 16.5894L27.3537 16.3976ZM28.4916 18.118L28.8877 15.032L29.3584 15.0924L29.2984 15.5602C29.4466 15.3567 29.5755 15.2266 29.6852 15.1698C29.7968 15.1132 29.9137 15.0928 30.0357 15.1084C30.212 15.131 30.384 15.2102 30.5517 15.3459L30.3092 15.8081C30.1911 15.7161 30.0681 15.662 29.9402 15.6455C29.8259 15.6309 29.7188 15.6526 29.6188 15.7106C29.519 15.7667 29.4419 15.8533 29.3875 15.9704C29.3055 16.1489 29.2504 16.3486 29.222 16.5695L29.0147 18.1851L28.4916 18.118ZM32.4814 18.63L32.5313 18.2406C32.2964 18.5216 31.9891 18.6377 31.6094 18.589C31.3634 18.5574 31.1454 18.4605 30.9555 18.2983C30.7676 18.1364 30.632 17.927 30.5488 17.6701C30.4677 17.4116 30.4475 17.1245 30.488 16.8087C30.5275 16.5007 30.6147 16.2283 30.7494 15.9916C30.8844 15.7529 31.0632 15.5799 31.2857 15.4726C31.5082 15.3653 31.7463 15.3279 32.0001 15.3605C32.1861 15.3844 32.3466 15.4453 32.4817 15.5434C32.617 15.6396 32.7222 15.7564 32.7971 15.894L32.9932 14.3655L33.5134 14.4323L32.9667 18.6923L32.4814 18.63ZM31.0256 16.8777C30.9749 17.2729 31.0203 17.579 31.1618 17.7961C31.3032 18.0131 31.4873 18.1362 31.714 18.1653C31.9426 18.1946 32.1482 18.1265 32.331 17.9609C32.5159 17.7936 32.6329 17.5182 32.6821 17.1346C32.7363 16.7123 32.6948 16.3919 32.5574 16.1734C32.42 15.9549 32.2322 15.8304 31.9939 15.7998C31.7614 15.77 31.5546 15.8399 31.3733 16.0096C31.194 16.1796 31.0781 16.469 31.0256 16.8777Z" fill="white"/>
</svg>
