<svg width="16" height="13" viewBox="0 0 16 13" fill="none" xmlns="http://www.w3.org/2000/svg">
<path d="M15.1247 2.06605C14.5744 2.30617 13.9925 2.46581 13.3967 2.54005C14.0248 2.16758 14.4945 1.57765 14.7167 0.882049C14.1293 1.23042 13.4867 1.47595 12.8167 1.60805C12.4055 1.16801 11.8714 0.861906 11.2839 0.729572C10.6964 0.597238 10.0826 0.644798 9.52249 0.866065C8.96236 1.08733 8.4818 1.47206 8.14332 1.9702C7.80485 2.46833 7.62414 3.0568 7.6247 3.65905C7.62251 3.88894 7.64598 4.11836 7.6947 4.34305C6.50132 4.28446 5.33375 3.97467 4.2683 3.43393C3.20285 2.89319 2.26351 2.13368 1.5117 1.20505C1.1256 1.86495 1.00601 2.64736 1.17737 3.39246C1.34873 4.13756 1.79811 4.78912 2.4337 5.21405C1.95898 5.20145 1.49426 5.07489 1.0787 4.84505V4.87805C1.07934 5.57032 1.31827 6.24127 1.75533 6.77812C2.1924 7.31498 2.80095 7.68502 3.4787 7.82605C3.22196 7.89414 2.95731 7.92777 2.6917 7.92605C2.50108 7.92951 2.31065 7.91242 2.1237 7.87505C2.3173 8.47001 2.69045 8.99039 3.19184 9.36464C3.69323 9.7389 4.29825 9.94864 4.9237 9.96505C3.8631 10.7937 2.55566 11.2436 1.2097 11.243C0.969736 11.2447 0.729911 11.231 0.491699 11.202C1.86287 12.0855 3.46055 12.553 5.0917 12.548C6.21494 12.5559 7.32855 12.3405 8.36784 11.9143C9.40713 11.4881 10.3514 10.8597 11.1457 10.0655C11.9401 9.27134 12.5688 8.32723 12.9952 7.28804C13.4216 6.24885 13.6373 5.1353 13.6297 4.01205C13.6297 3.87905 13.6297 3.75105 13.6187 3.62405C14.2113 3.20069 14.7217 2.6727 15.1247 2.06605Z" fill="#03A9F4"/>
</svg>
