<svg viewBox="0 0 2048 1329.1012" xmlns="http://www.w3.org/2000/svg"><path d="M1024 867.17H29.286c-8.806 0-8.806 0-8.806-8.806V165.32c0-8.396 0-8.396 8.602-8.396H2018.92c8.6 0 8.6 0 8.6 8.397v693.66c0 9.42 1.23 8.19-8.19 8.19zM192.102 254.41h1.843c1.434 10.24 3.072 20.48 4.506 30.514s3.278 24.37 4.916 36.454 2.867 19.25 4.3 29.082 2.254 16.384 3.687 24.37c0 4.097 0 4.097 5.12 4.097h73.114c4.71 0 4.71 0 5.734-4.506s2.46-10.853 3.687-16.178c3.89-17.818 7.578-35.635 11.264-53.453 3.073-14.337 6.35-28.878 9.422-43.214l8.602-40.96 7.373-33.792c0-2.253 0-3.072-2.662-3.072h-61.44c-2.662 0-4.096 0-4.3 3.89 0 9.422-2.46 18.638-3.687 28.06q-4.915 36.453-10.035 72.908c0 5.53-2.048 11.06-3.072 17.203 0-1.23-1.433-1.638-1.433-2.048-2.048-12.083-4.096-24.166-5.94-36.25-3.07-20.48-5.733-39.936-8.6-59.802 0-6.758-2.254-13.722-3.073-20.48 0-2.662-1.434-3.686-4.096-3.482h-67.174c-.616-.1-1.325-.157-2.048-.157s-1.432.058-2.124.17l.076-.01c-1.213.404-2.206 1.198-2.854 2.23l-.013.022c-.1.585-.16 1.258-.16 1.946s.06 1.362.17 2.017l-.01-.07c-1.228 9.01-2.457 18.227-3.89 27.238s-4.3 24.37-5.94 35.635-4.095 28.877-6.143 43.213c0 3.686-1.638 7.373-2.458 11.06-1.565-3.908-2.783-8.466-3.446-13.202l-.036-.314c-1.843-13.722-3.686-27.443-5.53-40.96l-8.397-63.283c0-4.096 0-4.096-4.71-4.3H53.66c-4.302 0-4.302 0-3.483 4.095 2.662 13.107 5.325 26.214 8.192 39.322 3.48 16.384 7.372 32.563 10.853 48.742 2.867 12.698 5.325 25.395 8.192 38.093 1.843 7.987 3.686 15.974 5.325 24.166 2.662 12.29 5.12 24.372 7.578 36.66 0 2.048 1.434 3.072 3.482 2.867h73.728c.523.093 1.126.146 1.74.146s1.218-.053 1.804-.155l-.062.01c1.205-.422 2.193-1.21 2.854-2.232l.013-.022c.112-.585.176-1.258.176-1.946s-.064-1.36-.186-2.013l.01.067c2.662-19.046 5.12-37.888 7.782-56.934q3.276-23.347 6.757-46.694c1.638-4.71 2.662-9.626 3.686-14.746zm769.024 282.008h-1.434c-1.638-4.096-3.482-7.987-4.915-12.083-3.686-10.445-7.373-20.48-11.06-31.54l-24.165-68.607c-1.434-4.3-1.638-4.506-6.144-4.506h-82.74c-3.89 0-4.095 0-4.095 4.3v183.91c0 5.53 0 5.53 5.325 5.53h51.2c4.3 0 4.3 0 4.506-4.505v-1.638V507.13v-11.264c2.08 2.763 3.813 5.95 5.04 9.374l.08.252c4.096 11.06 7.987 22.323 11.878 33.587l23.552 68.404c2.048 5.94 2.048 6.144 8.397 6.144h78.44c7.577 0 6.962 0 6.962-7.168V438.934v-14.336s0-4.506-4.506-4.506h-50.79c-4.915 0-5.12 0-5.12 5.12v102.4c0 2.253-.205 4.915-.41 8.806zm580.608-274.84h1.23c1.228 2.66 2.457 5.324 3.48 8.19l12.903 37.48c7.987 22.732 15.974 45.465 23.962 68.402.393 2.237 2.32 3.915 4.642 3.915.168 0 .334-.01.498-.026h-.02 82.944c4.3 0 4.506 0 4.506-4.505v-42.598V191.33c0-5.734 0-5.94-5.734-5.94h-50.176c-5.12 0-5.12 0-5.12 5.12V295.37c.1.537.157 1.155.157 1.786 0 2.164-.672 4.172-1.818 5.826l.02-.034c-1.228-2.458-2.252-4.3-2.866-6.144s-3.277-9.42-4.915-14.13l-17-48.13c-5.324-15.154-10.65-30.31-15.77-45.465.02-.148.03-.32.03-.494 0-2.375-1.927-4.3-4.302-4.3-.3 0-.593.03-.875.088l.028-.004h-82.943c-4.71 0-4.71 0-4.71 4.915v184.935c0 4.096 0 4.096 4.096 4.096h52.02c4.505 0 4.505 0 4.505-4.505v-4.71-102.4c.44-2.2.864-3.922 1.35-5.617l-.12.497zm0 233.88h1.23l4.505 12.288c4.095 11.47 8.396 22.938 12.287 34.61 7.578 21.915 14.95 43.828 22.733 65.742 1.843 5.325 0 5.325 7.782 5.325h81.92c1.843 0 2.867 0 2.867-2.662v-2.866-182.682c0-5.325 0-5.325-5.326-5.53h-48.742c-6.554 0-6.144 0-6.144 6.35v106.495c.058.492.09 1.06.09 1.638s-.032 1.147-.097 1.707l.007-.068c-1.82-2.208-3.284-4.793-4.25-7.61l-.05-.173-8.807-24.985-12.288-35.226-15.565-45.057c-.376-2.024-2.127-3.536-4.232-3.536-.24 0-.478.02-.708.058l.025-.003h-81.92c-5.734 0-5.94 0-5.94 5.53v182.682c0 5.325 0 5.53 5.53 5.53H1536c5.53 0 5.53 0 5.53-5.734v-3.482-99.738c-.41-2.662 0-5.53.41-8.602zm-159.54-214.016v-1.23l9.012-3.48c13.9-4.73 24.284-16.34 27.194-30.663l.045-.264c.942-4.03 1.482-8.66 1.482-13.414s-.54-9.383-1.562-13.828l.08.413c-2.805-11.26-10.308-20.375-20.256-25.295l-.225-.1c-5.92-3.29-12.862-5.545-20.242-6.328l-.238-.02c-8.218-1.37-18.093-2.396-28.12-2.847l-.552-.02H1242.93c-3.89 0-3.89 0-3.89 3.89V374.832s0 3.687 3.686 3.687h66.765c3.892 0 3.892 0 4.097-3.89s0-2.663 0-4.097v-58.163c0-2.662 0-4.096 3.686-3.89s9.626 0 14.336 1.228c5.91.767 10.51 5.506 11.054 11.42l.004.05c1.434 8.805 2.662 17.407 4.096 26.01s3.072 17.407 4.71 26.01c1.024 5.12 1.23 4.914 6.554 4.914h67.994v-4.302c-3.49-12.715-6.578-28.34-8.62-44.29l-.186-1.79c-1.222-8.205-2.652-15.134-4.415-21.93l.32 1.45c-2.138-12.527-11.99-22.24-24.413-24.146l-.163-.02c-2.638-.554-4.768-1.12-6.857-1.777l.508.138zm-619.52 208.896v-65.74c0-5.12 0-5.12-5.12-5.12h-66.56c-3.685 0-3.685 0-3.89 3.685v121.271c0 4.517-.673 8.876-1.925 12.983l.082-.315c-1.582 5.96-6.928 10.28-13.283 10.28-.372 0-.74-.015-1.102-.044l.048.003c-.068.002-.148.003-.228.003-6.383 0-11.818-4.055-13.87-9.73l-.032-.102c-1.47-3.826-2.323-8.253-2.323-12.878 0-.8.026-1.595.076-2.383l-.006.107v-111.82-6.35s0-4.506-4.3-4.71h-68.61c-.063-.005-.137-.01-.212-.01-1.47 0-2.662 1.193-2.662 2.663 0 .075.003.15.01.223l-.002-.01V545.02c-.145 2.142-.227 4.645-.227 7.167s.084 5.025.246 7.505l-.018-.337c2.292 21.694 16.17 39.67 35.253 47.78l.383.143c12.268 5.954 26.603 9.73 41.74 10.436l.244.01c6.144.698 13.266 1.097 20.48 1.097s14.336-.398 21.343-1.175l-.863.078c12.42-1.596 23.688-5.13 33.985-10.31l-.603.275c19.146-10.008 31.99-29.726 31.99-52.444 0-.787-.015-1.57-.046-2.35l.003.113c.41-20.48 0-41.984 0-62.67zm557.467 127.59c1.373.06 2.982.094 4.6.094 16.645 0 32.456-3.578 46.703-10.008l-.716.29c13.726-6.317 25.018-15.9 33.205-27.787l.177-.272c10.174-15.266 16.553-33.843 17.4-53.85l.007-.218c.267-3.18.42-6.883.42-10.622 0-12.84-1.8-25.26-5.157-37.022l.232.95c-4.914-18.12-14.988-33.44-28.532-44.74l-.14-.112c-12.522-10.064-28.04-16.896-45.027-19l-.44-.045c-6.227-1.01-13.405-1.585-20.718-1.585-10.44 0-20.604 1.175-30.37 3.4l.914-.176c-21.065 4.277-38.916 15.777-51.258 31.75l-.147.198c-7.797 10.547-13.63 23.054-16.67 36.615l-.123.66c-1.958 8.4-3.08 18.045-3.08 27.953 0 3.64.152 7.246.45 10.81l-.032-.466c.695 23.43 9.155 44.755 22.88 61.628l-.147-.188c7.49 8.643 16.714 15.57 27.154 20.28l.494.2c13.954 7.17 30.438 11.402 47.903 11.47h.02zM618.29 320.765H583.643c-1.244 0-2.253 1.01-2.253 2.253 0 .145.013.287.04.424l-.003-.013c.61 10.123 3.342 19.48 7.756 27.812l-.178-.37c9.682 15.103 25.05 25.84 43.012 29.223l.406.064c10.454 2.603 22.454 4.096 34.804 4.096h.013c2.012.103 4.37.16 6.74.16 19.748 0 38.55-4.05 55.62-11.365l-.92.35c11.157-4.825 20.248-12.664 26.482-22.493l.14-.238c5.64-9.258 8.977-20.455 8.977-32.432 0-3.008-.212-5.966-.62-8.862l.04.333c-1.25-13.182-7.557-24.688-16.933-32.712l-.067-.056c-9.196-7.35-20.186-12.882-32.187-15.853l-.58-.122c-14.95-4.3-29.902-7.987-44.852-12.288-3.81-1.034-7.147-2.505-10.197-4.395l.163.094c-3.2-1.877-5.313-5.3-5.313-9.216s2.114-7.34 5.263-9.19l.05-.026c2.68-1.32 5.796-2.26 9.08-2.65l.136-.012c1.106-.12 2.388-.188 3.686-.188s2.58.068 3.844.2l-.157-.012c.283-.022.612-.034.945-.034 6.6 0 12.062 4.88 12.973 11.228l.008.07c1.23 4.915 1.23 4.915 6.35 4.915h58.778c2.253 0 3.072 0 3.072-3.073.005-.263.008-.574.008-.885 0-11.595-3.933-22.27-10.537-30.768l.086.113c-10.573-12.018-25.27-20.187-41.858-22.29l-.33-.033c-8.17-1.468-17.572-2.307-27.17-2.307-1.465 0-2.925.02-4.38.058l.215-.005c-.92-.022-2.005-.035-3.093-.035-17.91 0-35.006 3.472-50.657 9.78l.91-.324c-13.594 5.384-24.374 15.434-30.57 28.13l-.15.338c-3.234 7.364-5.117 15.95-5.117 24.973 0 2.53.148 5.027.436 7.48l-.028-.3c.805 14.792 8.694 27.582 20.307 35.12l.174.107c6.467 4.214 13.984 7.526 22.02 9.52l.508.105 40.96 11.878c7.02 1.942 12.807 3.968 18.426 6.317l-1.018-.377c4.528 2.248 7.585 6.84 7.585 12.146 0 3.157-1.083 6.062-2.897 8.363l.022-.03c-3.784 4.58-9.465 7.478-15.823 7.478-2.402 0-4.707-.413-6.848-1.173l.142.044c-7.552-1.56-13.17-8.092-13.312-15.96v-.015c0-3.89 0-4.096-5.12-4.096zm414.312-38.707v93.184s0 3.892 3.686 4.097h141.722c3.89 0 3.89 0 3.89-3.89v-18.433-22.938c0-3.686 0-3.686-3.89-3.89h-69.632c-2.458 0-3.482 0-3.482-3.483v-11.47c0-9.42-1.024-8.396 8.192-8.396h54.272c5.53 0 5.53 0 5.53-5.325v-20.48-19.046s0-4.096-4.3-4.3h-61.44c-2.254 0-3.073-1.23-3.073-3.278v-14.336s0-4.506 4.506-4.506h65.126c4.505 0 5.12 0 5.12-4.3v-40.96c0-3.687 0-3.892-3.892-4.097h-135.782c-6.758 0-6.554 0-6.554 6.348v89.498zm-649.216 0v92.159c0 4.915 0 4.915 4.71 4.915h139.878c4.506 0 4.506 0 4.506-4.506v-32.154-9.216s-1.024-3.482-3.482-3.277h-69.632c-2.458 0-3.482-1.025-3.277-3.483s0-7.578 0-11.47c0-9.42-1.23-8.396 8.19-8.396h55.297c5.325 0 5.53 0 5.53-5.53v-38.5c0-5.12 0-5.12-5.12-5.12h-61.44c-2.048 0-3.277 0-3.277-3.073v-16.794c0-1.638 0-2.458 2.458-2.458h66.15c5.53 0 5.53 0 5.53-5.734v-30.514-9.83s-.205-4.71-2.867-4.71H386.664c-2.253 0-3.072 1.024-3.072 3.072v4.096q-.204 45.67-.204 90.522zm510.976-97.69h-80.077c-7.578 0-6.144 0-6.144 6.35v40.96c0 4.505 0 4.505 4.507 4.505h35.635c8.806 0 8.192 0 8.192 7.987v129.637c0 5.325 0 5.325 5.325 5.325h62.873c8.192 0 7.578 0 7.578-7.782V242.94c0-6.554 0-6.554 6.76-6.554h36.25c5.12 0 5.324 0 5.324-5.12v-41.984c0-3.89 0-3.89-3.89-4.096h-81.92zm269.312 332.39v-89.293-3.482s0-4.3-4.096-4.3h-64.512c-7.782 0-7.168 0-7.168 7.167v183.295s0 3.277 3.072 3.277h69.222c2.867 0 3.686-1.024 3.482-3.686-.024-.428-.037-.93-.037-1.434s.014-1.005.04-1.503l-.003.068v-90.112zM1731.38 396.13V607.074s0 3.89 3.685 3.686h12.083c7.578 0 7.168 0 7.168-7.168V191.125v-5.12s0-3.482-3.277-3.482h-16.18c-2.458 0-3.482 0-3.482 3.482V396.13zm173.874 2.253V606.05s0 3.89 3.89 3.89h14.95c3.892 0 3.892 0 3.892-3.89v-2.867V198.09v-5.735c0-5.325 0-5.53-5.325-5.53h-10.444c-8.397 0-6.963 0-6.963 7.168q-.614 102.195-.614 204.595zm95.437-189.235c.003-.122.004-.266.004-.41 0-13.46-10.91-24.37-24.37-24.37h-.005c-13.687 0-24.782 11.094-24.782 24.78s11.095 24.78 24.78 24.78c13.486-.115 24.372-11.073 24.372-24.574zm-687.103 38.093v-14.95s0-3.89 3.686-3.685 10.65 0 15.974 1.434c6.767.826 12.075 6.135 12.895 12.83l.007.07c.325 1.304.51 2.8.51 4.34 0 6.863-3.708 12.86-9.23 16.094l-.088.048c-5.06 2.407-10.995 3.813-17.258 3.813-1.134 0-2.257-.046-3.368-.136l.146.01c-2.048 0-2.458-1.435-2.458-3.278q-.82-8.602-.82-16.59zm-13.72 269.313c1.228-11.264 2.047-22.528 3.48-33.587.673-3.692 1.81-6.988 3.372-10.032l-.095.202c2.4-5.392 7.712-9.083 13.886-9.083.52 0 1.033.026 1.54.077l-.065-.005c.33-.026.717-.042 1.107-.042 6.32 0 11.713 3.977 13.81 9.566l.033.1c1.892 4.432 3.39 9.598 4.25 14.978l.05.383c.905 7.072 1.42 15.252 1.42 23.553s-.515 16.48-1.517 24.51l.098-.958c0 5.53-1.434 11.06-2.662 16.384-.644 2.64-1.558 4.96-2.738 7.112l.075-.15c-2.87 5.562-8.575 9.3-15.154 9.3s-12.285-3.738-15.11-9.205l-.046-.095c-2.872-7.42-4.535-16.006-4.535-24.98 0-.723.01-1.442.032-2.16l-.002.106v-16.18zm654.13-307.405c-.015-.306-.024-.664-.024-1.025 0-12.04 9.708-21.81 21.723-21.913h.01c.25-.01.542-.016.835-.016 11.877 0 21.505 9.628 21.505 21.504 0 .294-.006.586-.018.877v-.042c.117.82.183 1.765.183 2.726 0 11.31-9.17 20.48-20.48 20.48-.57 0-1.132-.024-1.69-.07l.074.005c-.127.003-.276.004-.425.004-11.99 0-21.71-9.72-21.71-21.71 0-.29.006-.578.017-.865v.04zm26.214 1.23l3.892-1.435c2.89-.968 4.937-3.65 4.937-6.812 0-.196-.01-.392-.025-.585l.002.025c-.216-3.374-2.955-6.04-6.34-6.144h-13.116s-2.66 0-2.66 2.867v22.323s0 1.434 1.228 2.253 1.434-1.23 1.434-2.05v-6.962s0-3.686 4.096-3.89c.087-.006.19-.01.292-.01 2.126 0 3.96 1.247 4.815 3.05l.014.03 5.12 8.398c0 1.434 2.047 2.253 3.89 0zm-3.89-13.723h5.53c2.156.304 3.81 2.097 3.89 4.293v.008c.094.334.148.718.148 1.114 0 2.065-1.455 3.79-3.395 4.205l-.028.005c-1.623.115-3.518.18-5.427.18s-3.804-.065-5.68-.194l.253.014c-.894-.257-1.585-.948-1.838-1.824l-.005-.02c-.103-1.104-.162-2.388-.162-3.685s.06-2.58.174-3.85l-.013.164s1.024-1.638 1.843-1.638c1.8.31 3.382.735 4.904 1.29l-.194-.06z"/></svg>